G04 #@! TF.FileFunction,Soldermask,Top*
%FSLAX46Y46*%
G04 Gerber Fmt 4.6, Leading zero omitted, Abs format (unit mm)*
G04 Created by KiCad (PCBNEW no-vcs-found-undefined) date Thu Oct 27 09:39:44 2016*
%MOMM*%
%LPD*%
G01*
G04 APERTURE LIST*
%ADD10C,0.600000*%
%ADD11C,0.254000*%
%ADD12C,1.254000*%
%ADD13R,3.000000X1.400000*%
%ADD14C,1.600000*%
%ADD15C,1.200000*%
%ADD16O,3.200000X1.900000*%
%ADD17O,2.900000X1.900000*%
%ADD18R,3.200000X1.000000*%
%ADD19R,0.950000X0.900000*%
%ADD20R,1.117600X1.117600*%
%ADD21R,0.900000X0.950000*%
%ADD22R,0.901600X0.901600*%
%ADD23R,0.601600X0.651600*%
%ADD24R,0.651600X0.601600*%
%ADD25R,1.301600X0.651600*%
%ADD26R,1.901600X0.701600*%
%ADD27R,1.501600X0.355600*%
%ADD28R,0.355600X1.501600*%
%ADD29R,1.600000X1.800000*%
%ADD30R,1.800000X1.800000*%
%ADD31C,1.800000*%
G04 APERTURE END LIST*
D10*
D11*
X137000000Y-34500000D02*
X149500000Y-34500000D01*
X115000000Y-45000000D02*
X137000000Y-34500000D01*
X102500000Y-45000000D02*
X115000000Y-45000000D01*
X102500000Y-62500000D02*
X102500000Y-45000000D01*
X149500000Y-62500000D02*
X149500000Y-34500000D01*
X102500000Y-62500000D02*
X149500000Y-62500000D01*
D12*
X135100000Y-37750000D03*
X135350000Y-60400000D03*
X111700000Y-47150000D03*
D13*
X107530000Y-57150000D03*
X107530000Y-54610000D03*
X107530000Y-52610000D03*
X107530000Y-50070000D03*
D14*
X104530000Y-51310000D03*
X104530000Y-55910000D03*
D15*
X105280000Y-47610000D03*
X103780000Y-59610000D03*
X103780000Y-47610000D03*
D16*
X104530000Y-47610000D03*
D15*
X105280000Y-59610000D03*
D16*
X104530000Y-59610000D03*
D17*
X140450000Y-46850000D03*
X140450000Y-59550000D03*
D18*
X138950000Y-49390000D03*
X138950000Y-50660000D03*
X138950000Y-51930000D03*
X138950000Y-53200000D03*
X138950000Y-54470000D03*
X138950000Y-55740000D03*
X138950000Y-57010000D03*
D19*
X128800000Y-48484000D03*
X128800000Y-49500000D03*
D20*
X133961000Y-44000000D03*
X135739000Y-44000000D03*
D21*
X135758000Y-42350000D03*
X134742000Y-42350000D03*
D20*
X129150000Y-42350000D03*
X129150000Y-40572000D03*
D21*
X130834000Y-43800000D03*
X131850000Y-43800000D03*
D19*
X127850000Y-48492000D03*
X127850000Y-49508000D03*
D21*
X135092000Y-50650000D03*
X136108000Y-50650000D03*
X135092000Y-51950000D03*
X136108000Y-51950000D03*
X136108000Y-54450000D03*
X135092000Y-54450000D03*
X135142000Y-55750000D03*
X136158000Y-55750000D03*
D19*
X126550000Y-58808000D03*
X126550000Y-57792000D03*
D20*
X139650000Y-40011000D03*
X139650000Y-41789000D03*
X128050000Y-59589000D03*
X128050000Y-57811000D03*
D19*
X122250000Y-59392000D03*
X122250000Y-60408000D03*
X122750000Y-46592000D03*
X122750000Y-47608000D03*
X121750000Y-46600000D03*
X121750000Y-47616000D03*
D20*
X121061000Y-61550000D03*
X122839000Y-61550000D03*
D19*
X121350000Y-59392000D03*
X121350000Y-60408000D03*
D21*
X107692000Y-47600000D03*
X108708000Y-47600000D03*
X113958000Y-49650000D03*
X112942000Y-49650000D03*
X116208000Y-50750000D03*
X115192000Y-50750000D03*
D20*
X115889000Y-52150000D03*
X114111000Y-52150000D03*
D21*
X114942000Y-53400000D03*
X115958000Y-53400000D03*
D20*
X114061000Y-54700000D03*
X115839000Y-54700000D03*
D21*
X115858000Y-55950000D03*
X114842000Y-55950000D03*
D19*
X112800000Y-59858000D03*
X112800000Y-58842000D03*
D21*
X117592000Y-59750000D03*
X118608000Y-59750000D03*
D22*
X147500001Y-36250000D03*
X145976001Y-36250000D03*
X142126001Y-36250000D03*
X143650001Y-36250000D03*
D23*
X138642000Y-36300000D03*
X139658000Y-36300000D03*
D24*
X128800000Y-50492000D03*
X128800000Y-51508000D03*
X139650000Y-38608000D03*
X139650000Y-37592000D03*
X124800000Y-46742000D03*
X124800000Y-47758000D03*
X125950000Y-47758000D03*
X125950000Y-46742000D03*
D23*
X110142000Y-57150000D03*
X111158000Y-57150000D03*
D24*
X123250000Y-60408000D03*
X123250000Y-59392000D03*
D23*
X110142000Y-58300000D03*
X111158000Y-58300000D03*
X118408000Y-47300000D03*
X117392000Y-47300000D03*
X117392000Y-48350000D03*
X118408000Y-48350000D03*
X115200000Y-49650000D03*
X116216000Y-49650000D03*
D24*
X117600000Y-58758000D03*
X117600000Y-57742000D03*
D25*
X130850000Y-40450000D03*
X130850000Y-42350000D03*
X133450000Y-40450000D03*
X133450000Y-41400000D03*
X133450000Y-42350000D03*
D26*
X135650000Y-49505000D03*
X135650000Y-48235000D03*
X135650000Y-46965000D03*
X135650000Y-45695000D03*
X130450000Y-45695000D03*
X130450000Y-46965000D03*
X130450000Y-48235000D03*
X130450000Y-49505000D03*
D27*
X118210000Y-50740000D03*
X118210000Y-51240000D03*
X118210000Y-51740000D03*
X118210000Y-52240000D03*
X118210000Y-52740000D03*
X118210000Y-53240000D03*
X118210000Y-53740000D03*
X118210000Y-54240000D03*
X118210000Y-54740000D03*
X118210000Y-55240000D03*
X118210000Y-55740000D03*
X118210000Y-56240000D03*
D28*
X119760000Y-57790000D03*
X120260000Y-57790000D03*
X120760000Y-57790000D03*
X121260000Y-57790000D03*
X121760000Y-57790000D03*
X122260000Y-57790000D03*
X122760000Y-57790000D03*
X123260000Y-57790000D03*
X123760000Y-57790000D03*
X124260000Y-57790000D03*
X124760000Y-57790000D03*
X125260000Y-57790000D03*
D27*
X126810000Y-56240000D03*
X126810000Y-55740000D03*
X126810000Y-55240000D03*
X126810000Y-54740000D03*
X126810000Y-54240000D03*
X126810000Y-53740000D03*
X126810000Y-53240000D03*
X126810000Y-52740000D03*
X126810000Y-52240000D03*
X126810000Y-51740000D03*
X126810000Y-51240000D03*
X126810000Y-50740000D03*
D28*
X125260000Y-49190000D03*
X124760000Y-49190000D03*
X124260000Y-49190000D03*
X123760000Y-49190000D03*
X123260000Y-49190000D03*
X122760000Y-49190000D03*
X122260000Y-49190000D03*
X121760000Y-49190000D03*
X121260000Y-49190000D03*
X120760000Y-49190000D03*
X120260000Y-49190000D03*
X119760000Y-49190000D03*
D29*
X114500000Y-57650000D03*
X116100000Y-59850000D03*
X114500000Y-59850000D03*
X116100000Y-57650000D03*
D30*
X141947860Y-41558380D03*
D31*
X141945320Y-39546700D03*
M02*
