G04 #@! TF.FileFunction,Copper,L2,Inr,Plane*
%FSLAX46Y46*%
G04 Gerber Fmt 4.6, Leading zero omitted, Abs format (unit mm)*
G04 Created by KiCad (PCBNEW no-vcs-found-undefined) date Thu Oct 27 09:39:57 2016*
%MOMM*%
%LPD*%
G01*
G04 APERTURE LIST*
%ADD10C,0.600000*%
%ADD11C,1.200000*%
%ADD12C,0.800000*%
%ADD13O,2.800000X1.500000*%
%ADD14O,2.500000X1.500000*%
%ADD15R,1.400000X1.400000*%
%ADD16C,1.400000*%
%ADD17C,0.508000*%
%ADD18C,0.254000*%
G04 APERTURE END LIST*
D10*
D11*
X104530000Y-51310000D03*
X104530000Y-55910000D03*
D12*
X105280000Y-47610000D03*
X103780000Y-59610000D03*
X103780000Y-47610000D03*
D13*
X104530000Y-47610000D03*
D12*
X105280000Y-59610000D03*
D13*
X104530000Y-59610000D03*
D14*
X140450000Y-46850000D03*
X140450000Y-59550000D03*
D15*
X141947860Y-41558380D03*
D16*
X141945320Y-39546700D03*
D12*
X132620704Y-39700485D03*
X119050000Y-59100000D03*
X136950000Y-42650000D03*
X131900000Y-45750000D03*
X127100000Y-48500000D03*
X141750000Y-51900000D03*
X141750000Y-54900000D03*
X112126000Y-49708000D03*
X114084000Y-55950000D03*
X123900000Y-61600000D03*
X129750000Y-57650000D03*
X131700000Y-55350000D03*
X133100000Y-54000000D03*
X141750000Y-56650000D03*
X141750000Y-53200000D03*
X141750000Y-50650000D03*
X129150000Y-39650000D03*
X138375400Y-39600000D03*
X118750000Y-57150000D03*
X111069400Y-59858000D03*
X113400000Y-59858000D03*
X109700000Y-48950000D03*
X110200000Y-49708000D03*
X109338000Y-50070000D03*
X113200000Y-50691000D03*
X114111000Y-53450000D03*
X122324000Y-56400000D03*
X129000000Y-44843010D03*
X129800000Y-44843010D03*
X128450000Y-46900000D03*
X116650000Y-50250000D03*
X120200000Y-61550000D03*
X121750000Y-59017026D03*
X125400000Y-53200000D03*
X129600000Y-50500000D03*
X145950000Y-37400000D03*
X123761400Y-47150000D03*
X116750000Y-55350000D03*
X110100000Y-56200000D03*
X110100000Y-55350000D03*
X141050000Y-36200000D03*
X127000000Y-49850000D03*
X126550000Y-59750000D03*
X121000000Y-47400000D03*
X116750000Y-53400000D03*
X120550000Y-51400000D03*
X114600000Y-49150000D03*
X128250000Y-52850000D03*
X138650000Y-35300000D03*
X111200000Y-56350000D03*
X119459603Y-54264542D03*
D17*
X132306620Y-39650000D02*
X132570219Y-39650000D01*
X132570219Y-39650000D02*
X132620704Y-39700485D01*
X136384315Y-42650000D02*
X136950000Y-42650000D01*
X132306620Y-39650000D02*
X135306620Y-42650000D01*
X135306620Y-42650000D02*
X136384315Y-42650000D01*
X129150000Y-39650000D02*
X132306620Y-39650000D01*
D18*
G36*
X137614821Y-35504971D02*
X137772058Y-35885515D01*
X138062954Y-36176919D01*
X138443223Y-36334820D01*
X138854971Y-36335179D01*
X139235515Y-36177942D01*
X139526919Y-35887046D01*
X139684820Y-35506777D01*
X139685033Y-35262000D01*
X140609837Y-35262000D01*
X140464485Y-35322058D01*
X140173081Y-35612954D01*
X140015180Y-35993223D01*
X140014821Y-36404971D01*
X140172058Y-36785515D01*
X140462954Y-37076919D01*
X140843223Y-37234820D01*
X141254971Y-37235179D01*
X141635515Y-37077942D01*
X141926919Y-36787046D01*
X142084820Y-36406777D01*
X142085179Y-35995029D01*
X141927942Y-35614485D01*
X141637046Y-35323081D01*
X141489946Y-35262000D01*
X148738000Y-35262000D01*
X148738000Y-61738000D01*
X121234836Y-61738000D01*
X121235179Y-61345029D01*
X121077942Y-60964485D01*
X120787046Y-60673081D01*
X120406777Y-60515180D01*
X119995029Y-60514821D01*
X119614485Y-60672058D01*
X119323081Y-60962954D01*
X119165180Y-61343223D01*
X119164836Y-61738000D01*
X103262000Y-61738000D01*
X103262000Y-60857424D01*
X103310115Y-60889573D01*
X103840132Y-60995000D01*
X105219868Y-60995000D01*
X105749885Y-60889573D01*
X106199211Y-60589343D01*
X106499441Y-60140017D01*
X106604868Y-59610000D01*
X106527690Y-59221997D01*
X120714821Y-59221997D01*
X120872058Y-59602541D01*
X121162954Y-59893945D01*
X121543223Y-60051846D01*
X121954971Y-60052205D01*
X122190296Y-59954971D01*
X125514821Y-59954971D01*
X125672058Y-60335515D01*
X125962954Y-60626919D01*
X126343223Y-60784820D01*
X126754971Y-60785179D01*
X127135515Y-60627942D01*
X127426919Y-60337046D01*
X127584820Y-59956777D01*
X127585174Y-59550000D01*
X138528071Y-59550000D01*
X138633498Y-60080017D01*
X138933728Y-60529343D01*
X139383054Y-60829573D01*
X139913071Y-60935000D01*
X140986929Y-60935000D01*
X141516946Y-60829573D01*
X141966272Y-60529343D01*
X142266502Y-60080017D01*
X142371929Y-59550000D01*
X142266502Y-59019983D01*
X141966272Y-58570657D01*
X141516946Y-58270427D01*
X140986929Y-58165000D01*
X139913071Y-58165000D01*
X139383054Y-58270427D01*
X138933728Y-58570657D01*
X138633498Y-59019983D01*
X138528071Y-59550000D01*
X127585174Y-59550000D01*
X127585179Y-59545029D01*
X127427942Y-59164485D01*
X127137046Y-58873081D01*
X126756777Y-58715180D01*
X126345029Y-58714821D01*
X125964485Y-58872058D01*
X125673081Y-59162954D01*
X125515180Y-59543223D01*
X125514821Y-59954971D01*
X122190296Y-59954971D01*
X122335515Y-59894968D01*
X122626919Y-59604072D01*
X122784820Y-59223803D01*
X122785179Y-58812055D01*
X122627942Y-58431511D01*
X122337046Y-58140107D01*
X121956777Y-57982206D01*
X121545029Y-57981847D01*
X121164485Y-58139084D01*
X120873081Y-58429980D01*
X120715180Y-58810249D01*
X120714821Y-59221997D01*
X106527690Y-59221997D01*
X106499441Y-59079983D01*
X106199211Y-58630657D01*
X105749885Y-58330427D01*
X105219868Y-58225000D01*
X103840132Y-58225000D01*
X103310115Y-58330427D01*
X103262000Y-58362576D01*
X103262000Y-56154579D01*
X103294786Y-56154579D01*
X103482408Y-56608657D01*
X103829515Y-56956371D01*
X104283266Y-57144785D01*
X104774579Y-57145214D01*
X105228657Y-56957592D01*
X105576371Y-56610485D01*
X105764785Y-56156734D01*
X105765214Y-55665421D01*
X105719577Y-55554971D01*
X109064821Y-55554971D01*
X109155764Y-55775071D01*
X109065180Y-55993223D01*
X109064821Y-56404971D01*
X109222058Y-56785515D01*
X109512954Y-57076919D01*
X109893223Y-57234820D01*
X110304971Y-57235179D01*
X110528854Y-57142673D01*
X110612954Y-57226919D01*
X110993223Y-57384820D01*
X111404971Y-57385179D01*
X111785515Y-57227942D01*
X112076919Y-56937046D01*
X112234820Y-56556777D01*
X112235179Y-56145029D01*
X112077942Y-55764485D01*
X111787046Y-55473081D01*
X111406777Y-55315180D01*
X111135031Y-55314943D01*
X111135179Y-55145029D01*
X110977942Y-54764485D01*
X110687046Y-54473081D01*
X110306777Y-54315180D01*
X109895029Y-54314821D01*
X109514485Y-54472058D01*
X109223081Y-54762954D01*
X109065180Y-55143223D01*
X109064821Y-55554971D01*
X105719577Y-55554971D01*
X105577592Y-55211343D01*
X105230485Y-54863629D01*
X104776734Y-54675215D01*
X104285421Y-54674786D01*
X103831343Y-54862408D01*
X103483629Y-55209515D01*
X103295215Y-55663266D01*
X103294786Y-56154579D01*
X103262000Y-56154579D01*
X103262000Y-53604971D01*
X115714821Y-53604971D01*
X115872058Y-53985515D01*
X116162954Y-54276919D01*
X116399272Y-54375046D01*
X116164485Y-54472058D01*
X115873081Y-54762954D01*
X115715180Y-55143223D01*
X115714821Y-55554971D01*
X115872058Y-55935515D01*
X116162954Y-56226919D01*
X116543223Y-56384820D01*
X116954971Y-56385179D01*
X117335515Y-56227942D01*
X117626919Y-55937046D01*
X117784820Y-55556777D01*
X117785179Y-55145029D01*
X117627942Y-54764485D01*
X117337046Y-54473081D01*
X117328454Y-54469513D01*
X118424424Y-54469513D01*
X118581661Y-54850057D01*
X118872557Y-55141461D01*
X119252826Y-55299362D01*
X119664574Y-55299721D01*
X120045118Y-55142484D01*
X120336522Y-54851588D01*
X120494423Y-54471319D01*
X120494782Y-54059571D01*
X120337545Y-53679027D01*
X120063967Y-53404971D01*
X124364821Y-53404971D01*
X124522058Y-53785515D01*
X124812954Y-54076919D01*
X125193223Y-54234820D01*
X125604971Y-54235179D01*
X125985515Y-54077942D01*
X126276919Y-53787046D01*
X126434820Y-53406777D01*
X126435126Y-53054971D01*
X127214821Y-53054971D01*
X127372058Y-53435515D01*
X127662954Y-53726919D01*
X128043223Y-53884820D01*
X128454971Y-53885179D01*
X128835515Y-53727942D01*
X129126919Y-53437046D01*
X129284820Y-53056777D01*
X129285179Y-52645029D01*
X129127942Y-52264485D01*
X128837046Y-51973081D01*
X128456777Y-51815180D01*
X128045029Y-51814821D01*
X127664485Y-51972058D01*
X127373081Y-52262954D01*
X127215180Y-52643223D01*
X127214821Y-53054971D01*
X126435126Y-53054971D01*
X126435179Y-52995029D01*
X126277942Y-52614485D01*
X125987046Y-52323081D01*
X125606777Y-52165180D01*
X125195029Y-52164821D01*
X124814485Y-52322058D01*
X124523081Y-52612954D01*
X124365180Y-52993223D01*
X124364821Y-53404971D01*
X120063967Y-53404971D01*
X120046649Y-53387623D01*
X119666380Y-53229722D01*
X119254632Y-53229363D01*
X118874088Y-53386600D01*
X118582684Y-53677496D01*
X118424783Y-54057765D01*
X118424424Y-54469513D01*
X117328454Y-54469513D01*
X117100728Y-54374954D01*
X117335515Y-54277942D01*
X117626919Y-53987046D01*
X117784820Y-53606777D01*
X117785179Y-53195029D01*
X117627942Y-52814485D01*
X117337046Y-52523081D01*
X116956777Y-52365180D01*
X116545029Y-52364821D01*
X116164485Y-52522058D01*
X115873081Y-52812954D01*
X115715180Y-53193223D01*
X115714821Y-53604971D01*
X103262000Y-53604971D01*
X103262000Y-51554579D01*
X103294786Y-51554579D01*
X103482408Y-52008657D01*
X103829515Y-52356371D01*
X104283266Y-52544785D01*
X104774579Y-52545214D01*
X105228657Y-52357592D01*
X105576371Y-52010485D01*
X105744755Y-51604971D01*
X119514821Y-51604971D01*
X119672058Y-51985515D01*
X119962954Y-52276919D01*
X120343223Y-52434820D01*
X120754971Y-52435179D01*
X121135515Y-52277942D01*
X121426919Y-51987046D01*
X121584820Y-51606777D01*
X121585179Y-51195029D01*
X121427942Y-50814485D01*
X121137046Y-50523081D01*
X120756777Y-50365180D01*
X120345029Y-50364821D01*
X119964485Y-50522058D01*
X119673081Y-50812954D01*
X119515180Y-51193223D01*
X119514821Y-51604971D01*
X105744755Y-51604971D01*
X105764785Y-51556734D01*
X105765214Y-51065421D01*
X105577592Y-50611343D01*
X105421493Y-50454971D01*
X115614821Y-50454971D01*
X115772058Y-50835515D01*
X116062954Y-51126919D01*
X116443223Y-51284820D01*
X116854971Y-51285179D01*
X117235515Y-51127942D01*
X117526919Y-50837046D01*
X117684820Y-50456777D01*
X117685170Y-50054971D01*
X125964821Y-50054971D01*
X126122058Y-50435515D01*
X126412954Y-50726919D01*
X126793223Y-50884820D01*
X127204971Y-50885179D01*
X127585515Y-50727942D01*
X127608526Y-50704971D01*
X128564821Y-50704971D01*
X128722058Y-51085515D01*
X129012954Y-51376919D01*
X129393223Y-51534820D01*
X129804971Y-51535179D01*
X130185515Y-51377942D01*
X130476919Y-51087046D01*
X130634820Y-50706777D01*
X130635179Y-50295029D01*
X130477942Y-49914485D01*
X130187046Y-49623081D01*
X129806777Y-49465180D01*
X129395029Y-49464821D01*
X129014485Y-49622058D01*
X128723081Y-49912954D01*
X128565180Y-50293223D01*
X128564821Y-50704971D01*
X127608526Y-50704971D01*
X127876919Y-50437046D01*
X128034820Y-50056777D01*
X128035179Y-49645029D01*
X127877942Y-49264485D01*
X127587046Y-48973081D01*
X127206777Y-48815180D01*
X126795029Y-48814821D01*
X126414485Y-48972058D01*
X126123081Y-49262954D01*
X125965180Y-49643223D01*
X125964821Y-50054971D01*
X117685170Y-50054971D01*
X117685179Y-50045029D01*
X117527942Y-49664485D01*
X117237046Y-49373081D01*
X116856777Y-49215180D01*
X116445029Y-49214821D01*
X116064485Y-49372058D01*
X115773081Y-49662954D01*
X115615180Y-50043223D01*
X115614821Y-50454971D01*
X105421493Y-50454971D01*
X105230485Y-50263629D01*
X104776734Y-50075215D01*
X104285421Y-50074786D01*
X103831343Y-50262408D01*
X103483629Y-50609515D01*
X103295215Y-51063266D01*
X103294786Y-51554579D01*
X103262000Y-51554579D01*
X103262000Y-49354971D01*
X113564821Y-49354971D01*
X113722058Y-49735515D01*
X114012954Y-50026919D01*
X114393223Y-50184820D01*
X114804971Y-50185179D01*
X115185515Y-50027942D01*
X115476919Y-49737046D01*
X115634820Y-49356777D01*
X115635179Y-48945029D01*
X115477942Y-48564485D01*
X115187046Y-48273081D01*
X114806777Y-48115180D01*
X114395029Y-48114821D01*
X114014485Y-48272058D01*
X113723081Y-48562954D01*
X113565180Y-48943223D01*
X113564821Y-49354971D01*
X103262000Y-49354971D01*
X103262000Y-48857424D01*
X103310115Y-48889573D01*
X103840132Y-48995000D01*
X105219868Y-48995000D01*
X105749885Y-48889573D01*
X106199211Y-48589343D01*
X106499441Y-48140017D01*
X106604868Y-47610000D01*
X106603868Y-47604971D01*
X119964821Y-47604971D01*
X120122058Y-47985515D01*
X120412954Y-48276919D01*
X120793223Y-48434820D01*
X121204971Y-48435179D01*
X121585515Y-48277942D01*
X121876919Y-47987046D01*
X122034820Y-47606777D01*
X122035039Y-47354971D01*
X122726221Y-47354971D01*
X122883458Y-47735515D01*
X123174354Y-48026919D01*
X123554623Y-48184820D01*
X123966371Y-48185179D01*
X124346915Y-48027942D01*
X124638319Y-47737046D01*
X124796220Y-47356777D01*
X124796439Y-47104971D01*
X127414821Y-47104971D01*
X127572058Y-47485515D01*
X127862954Y-47776919D01*
X128243223Y-47934820D01*
X128654971Y-47935179D01*
X129035515Y-47777942D01*
X129326919Y-47487046D01*
X129484820Y-47106777D01*
X129485043Y-46850000D01*
X138528071Y-46850000D01*
X138633498Y-47380017D01*
X138933728Y-47829343D01*
X139383054Y-48129573D01*
X139913071Y-48235000D01*
X140986929Y-48235000D01*
X141516946Y-48129573D01*
X141966272Y-47829343D01*
X142266502Y-47380017D01*
X142371929Y-46850000D01*
X142266502Y-46319983D01*
X141966272Y-45870657D01*
X141516946Y-45570427D01*
X140986929Y-45465000D01*
X139913071Y-45465000D01*
X139383054Y-45570427D01*
X138933728Y-45870657D01*
X138633498Y-46319983D01*
X138528071Y-46850000D01*
X129485043Y-46850000D01*
X129485179Y-46695029D01*
X129327942Y-46314485D01*
X129037046Y-46023081D01*
X128656777Y-45865180D01*
X128245029Y-45864821D01*
X127864485Y-46022058D01*
X127573081Y-46312954D01*
X127415180Y-46693223D01*
X127414821Y-47104971D01*
X124796439Y-47104971D01*
X124796579Y-46945029D01*
X124639342Y-46564485D01*
X124348446Y-46273081D01*
X123968177Y-46115180D01*
X123556429Y-46114821D01*
X123175885Y-46272058D01*
X122884481Y-46562954D01*
X122726580Y-46943223D01*
X122726221Y-47354971D01*
X122035039Y-47354971D01*
X122035179Y-47195029D01*
X121877942Y-46814485D01*
X121587046Y-46523081D01*
X121206777Y-46365180D01*
X120795029Y-46364821D01*
X120414485Y-46522058D01*
X120123081Y-46812954D01*
X119965180Y-47193223D01*
X119964821Y-47604971D01*
X106603868Y-47604971D01*
X106499441Y-47079983D01*
X106199211Y-46630657D01*
X105749885Y-46330427D01*
X105219868Y-46225000D01*
X103840132Y-46225000D01*
X103310115Y-46330427D01*
X103262000Y-46362576D01*
X103262000Y-45762000D01*
X115000000Y-45762000D01*
X115019942Y-45758033D01*
X115040064Y-45760946D01*
X115165090Y-45729162D01*
X115291605Y-45703996D01*
X115308509Y-45692701D01*
X115328216Y-45687691D01*
X116668560Y-45047981D01*
X127964821Y-45047981D01*
X128122058Y-45428525D01*
X128412954Y-45719929D01*
X128793223Y-45877830D01*
X129204971Y-45878189D01*
X129400010Y-45797601D01*
X129593223Y-45877830D01*
X130004971Y-45878189D01*
X130385515Y-45720952D01*
X130676919Y-45430056D01*
X130834820Y-45049787D01*
X130835179Y-44638039D01*
X130677942Y-44257495D01*
X130387046Y-43966091D01*
X130006777Y-43808190D01*
X129595029Y-43807831D01*
X129399990Y-43888419D01*
X129206777Y-43808190D01*
X128795029Y-43807831D01*
X128414485Y-43965068D01*
X128123081Y-44255964D01*
X127965180Y-44636233D01*
X127964821Y-45047981D01*
X116668560Y-45047981D01*
X128599179Y-39353822D01*
X140597901Y-39353822D01*
X140626656Y-39884140D01*
X140774278Y-40240531D01*
X140957604Y-40288615D01*
X140790051Y-40400571D01*
X140649703Y-40610615D01*
X140600420Y-40858380D01*
X140600420Y-42258380D01*
X140649703Y-42506145D01*
X140790051Y-42716189D01*
X141000095Y-42856537D01*
X141247860Y-42905820D01*
X142647860Y-42905820D01*
X142895625Y-42856537D01*
X143105669Y-42716189D01*
X143246017Y-42506145D01*
X143295300Y-42258380D01*
X143295300Y-40858380D01*
X143246017Y-40610615D01*
X143105669Y-40400571D01*
X142936684Y-40287658D01*
X143116362Y-40240531D01*
X143292739Y-39739578D01*
X143263984Y-39209260D01*
X143116362Y-38852869D01*
X142880595Y-38791031D01*
X142124925Y-39546700D01*
X142139068Y-39560842D01*
X141959462Y-39740448D01*
X141945320Y-39726305D01*
X141931178Y-39740448D01*
X141751573Y-39560843D01*
X141765715Y-39546700D01*
X141010045Y-38791031D01*
X140774278Y-38852869D01*
X140597901Y-39353822D01*
X128599179Y-39353822D01*
X130154677Y-38611425D01*
X141189651Y-38611425D01*
X141945320Y-39367095D01*
X142700989Y-38611425D01*
X142639151Y-38375658D01*
X142138198Y-38199281D01*
X141607880Y-38228036D01*
X141251489Y-38375658D01*
X141189651Y-38611425D01*
X130154677Y-38611425D01*
X132263438Y-37604971D01*
X144914821Y-37604971D01*
X145072058Y-37985515D01*
X145362954Y-38276919D01*
X145743223Y-38434820D01*
X146154971Y-38435179D01*
X146535515Y-38277942D01*
X146826919Y-37987046D01*
X146984820Y-37606777D01*
X146985179Y-37195029D01*
X146827942Y-36814485D01*
X146537046Y-36523081D01*
X146156777Y-36365180D01*
X145745029Y-36364821D01*
X145364485Y-36522058D01*
X145073081Y-36812954D01*
X144915180Y-37193223D01*
X144914821Y-37604971D01*
X132263438Y-37604971D01*
X137172521Y-35262000D01*
X137615033Y-35262000D01*
X137614821Y-35504971D01*
X137614821Y-35504971D01*
G37*
X137614821Y-35504971D02*
X137772058Y-35885515D01*
X138062954Y-36176919D01*
X138443223Y-36334820D01*
X138854971Y-36335179D01*
X139235515Y-36177942D01*
X139526919Y-35887046D01*
X139684820Y-35506777D01*
X139685033Y-35262000D01*
X140609837Y-35262000D01*
X140464485Y-35322058D01*
X140173081Y-35612954D01*
X140015180Y-35993223D01*
X140014821Y-36404971D01*
X140172058Y-36785515D01*
X140462954Y-37076919D01*
X140843223Y-37234820D01*
X141254971Y-37235179D01*
X141635515Y-37077942D01*
X141926919Y-36787046D01*
X142084820Y-36406777D01*
X142085179Y-35995029D01*
X141927942Y-35614485D01*
X141637046Y-35323081D01*
X141489946Y-35262000D01*
X148738000Y-35262000D01*
X148738000Y-61738000D01*
X121234836Y-61738000D01*
X121235179Y-61345029D01*
X121077942Y-60964485D01*
X120787046Y-60673081D01*
X120406777Y-60515180D01*
X119995029Y-60514821D01*
X119614485Y-60672058D01*
X119323081Y-60962954D01*
X119165180Y-61343223D01*
X119164836Y-61738000D01*
X103262000Y-61738000D01*
X103262000Y-60857424D01*
X103310115Y-60889573D01*
X103840132Y-60995000D01*
X105219868Y-60995000D01*
X105749885Y-60889573D01*
X106199211Y-60589343D01*
X106499441Y-60140017D01*
X106604868Y-59610000D01*
X106527690Y-59221997D01*
X120714821Y-59221997D01*
X120872058Y-59602541D01*
X121162954Y-59893945D01*
X121543223Y-60051846D01*
X121954971Y-60052205D01*
X122190296Y-59954971D01*
X125514821Y-59954971D01*
X125672058Y-60335515D01*
X125962954Y-60626919D01*
X126343223Y-60784820D01*
X126754971Y-60785179D01*
X127135515Y-60627942D01*
X127426919Y-60337046D01*
X127584820Y-59956777D01*
X127585174Y-59550000D01*
X138528071Y-59550000D01*
X138633498Y-60080017D01*
X138933728Y-60529343D01*
X139383054Y-60829573D01*
X139913071Y-60935000D01*
X140986929Y-60935000D01*
X141516946Y-60829573D01*
X141966272Y-60529343D01*
X142266502Y-60080017D01*
X142371929Y-59550000D01*
X142266502Y-59019983D01*
X141966272Y-58570657D01*
X141516946Y-58270427D01*
X140986929Y-58165000D01*
X139913071Y-58165000D01*
X139383054Y-58270427D01*
X138933728Y-58570657D01*
X138633498Y-59019983D01*
X138528071Y-59550000D01*
X127585174Y-59550000D01*
X127585179Y-59545029D01*
X127427942Y-59164485D01*
X127137046Y-58873081D01*
X126756777Y-58715180D01*
X126345029Y-58714821D01*
X125964485Y-58872058D01*
X125673081Y-59162954D01*
X125515180Y-59543223D01*
X125514821Y-59954971D01*
X122190296Y-59954971D01*
X122335515Y-59894968D01*
X122626919Y-59604072D01*
X122784820Y-59223803D01*
X122785179Y-58812055D01*
X122627942Y-58431511D01*
X122337046Y-58140107D01*
X121956777Y-57982206D01*
X121545029Y-57981847D01*
X121164485Y-58139084D01*
X120873081Y-58429980D01*
X120715180Y-58810249D01*
X120714821Y-59221997D01*
X106527690Y-59221997D01*
X106499441Y-59079983D01*
X106199211Y-58630657D01*
X105749885Y-58330427D01*
X105219868Y-58225000D01*
X103840132Y-58225000D01*
X103310115Y-58330427D01*
X103262000Y-58362576D01*
X103262000Y-56154579D01*
X103294786Y-56154579D01*
X103482408Y-56608657D01*
X103829515Y-56956371D01*
X104283266Y-57144785D01*
X104774579Y-57145214D01*
X105228657Y-56957592D01*
X105576371Y-56610485D01*
X105764785Y-56156734D01*
X105765214Y-55665421D01*
X105719577Y-55554971D01*
X109064821Y-55554971D01*
X109155764Y-55775071D01*
X109065180Y-55993223D01*
X109064821Y-56404971D01*
X109222058Y-56785515D01*
X109512954Y-57076919D01*
X109893223Y-57234820D01*
X110304971Y-57235179D01*
X110528854Y-57142673D01*
X110612954Y-57226919D01*
X110993223Y-57384820D01*
X111404971Y-57385179D01*
X111785515Y-57227942D01*
X112076919Y-56937046D01*
X112234820Y-56556777D01*
X112235179Y-56145029D01*
X112077942Y-55764485D01*
X111787046Y-55473081D01*
X111406777Y-55315180D01*
X111135031Y-55314943D01*
X111135179Y-55145029D01*
X110977942Y-54764485D01*
X110687046Y-54473081D01*
X110306777Y-54315180D01*
X109895029Y-54314821D01*
X109514485Y-54472058D01*
X109223081Y-54762954D01*
X109065180Y-55143223D01*
X109064821Y-55554971D01*
X105719577Y-55554971D01*
X105577592Y-55211343D01*
X105230485Y-54863629D01*
X104776734Y-54675215D01*
X104285421Y-54674786D01*
X103831343Y-54862408D01*
X103483629Y-55209515D01*
X103295215Y-55663266D01*
X103294786Y-56154579D01*
X103262000Y-56154579D01*
X103262000Y-53604971D01*
X115714821Y-53604971D01*
X115872058Y-53985515D01*
X116162954Y-54276919D01*
X116399272Y-54375046D01*
X116164485Y-54472058D01*
X115873081Y-54762954D01*
X115715180Y-55143223D01*
X115714821Y-55554971D01*
X115872058Y-55935515D01*
X116162954Y-56226919D01*
X116543223Y-56384820D01*
X116954971Y-56385179D01*
X117335515Y-56227942D01*
X117626919Y-55937046D01*
X117784820Y-55556777D01*
X117785179Y-55145029D01*
X117627942Y-54764485D01*
X117337046Y-54473081D01*
X117328454Y-54469513D01*
X118424424Y-54469513D01*
X118581661Y-54850057D01*
X118872557Y-55141461D01*
X119252826Y-55299362D01*
X119664574Y-55299721D01*
X120045118Y-55142484D01*
X120336522Y-54851588D01*
X120494423Y-54471319D01*
X120494782Y-54059571D01*
X120337545Y-53679027D01*
X120063967Y-53404971D01*
X124364821Y-53404971D01*
X124522058Y-53785515D01*
X124812954Y-54076919D01*
X125193223Y-54234820D01*
X125604971Y-54235179D01*
X125985515Y-54077942D01*
X126276919Y-53787046D01*
X126434820Y-53406777D01*
X126435126Y-53054971D01*
X127214821Y-53054971D01*
X127372058Y-53435515D01*
X127662954Y-53726919D01*
X128043223Y-53884820D01*
X128454971Y-53885179D01*
X128835515Y-53727942D01*
X129126919Y-53437046D01*
X129284820Y-53056777D01*
X129285179Y-52645029D01*
X129127942Y-52264485D01*
X128837046Y-51973081D01*
X128456777Y-51815180D01*
X128045029Y-51814821D01*
X127664485Y-51972058D01*
X127373081Y-52262954D01*
X127215180Y-52643223D01*
X127214821Y-53054971D01*
X126435126Y-53054971D01*
X126435179Y-52995029D01*
X126277942Y-52614485D01*
X125987046Y-52323081D01*
X125606777Y-52165180D01*
X125195029Y-52164821D01*
X124814485Y-52322058D01*
X124523081Y-52612954D01*
X124365180Y-52993223D01*
X124364821Y-53404971D01*
X120063967Y-53404971D01*
X120046649Y-53387623D01*
X119666380Y-53229722D01*
X119254632Y-53229363D01*
X118874088Y-53386600D01*
X118582684Y-53677496D01*
X118424783Y-54057765D01*
X118424424Y-54469513D01*
X117328454Y-54469513D01*
X117100728Y-54374954D01*
X117335515Y-54277942D01*
X117626919Y-53987046D01*
X117784820Y-53606777D01*
X117785179Y-53195029D01*
X117627942Y-52814485D01*
X117337046Y-52523081D01*
X116956777Y-52365180D01*
X116545029Y-52364821D01*
X116164485Y-52522058D01*
X115873081Y-52812954D01*
X115715180Y-53193223D01*
X115714821Y-53604971D01*
X103262000Y-53604971D01*
X103262000Y-51554579D01*
X103294786Y-51554579D01*
X103482408Y-52008657D01*
X103829515Y-52356371D01*
X104283266Y-52544785D01*
X104774579Y-52545214D01*
X105228657Y-52357592D01*
X105576371Y-52010485D01*
X105744755Y-51604971D01*
X119514821Y-51604971D01*
X119672058Y-51985515D01*
X119962954Y-52276919D01*
X120343223Y-52434820D01*
X120754971Y-52435179D01*
X121135515Y-52277942D01*
X121426919Y-51987046D01*
X121584820Y-51606777D01*
X121585179Y-51195029D01*
X121427942Y-50814485D01*
X121137046Y-50523081D01*
X120756777Y-50365180D01*
X120345029Y-50364821D01*
X119964485Y-50522058D01*
X119673081Y-50812954D01*
X119515180Y-51193223D01*
X119514821Y-51604971D01*
X105744755Y-51604971D01*
X105764785Y-51556734D01*
X105765214Y-51065421D01*
X105577592Y-50611343D01*
X105421493Y-50454971D01*
X115614821Y-50454971D01*
X115772058Y-50835515D01*
X116062954Y-51126919D01*
X116443223Y-51284820D01*
X116854971Y-51285179D01*
X117235515Y-51127942D01*
X117526919Y-50837046D01*
X117684820Y-50456777D01*
X117685170Y-50054971D01*
X125964821Y-50054971D01*
X126122058Y-50435515D01*
X126412954Y-50726919D01*
X126793223Y-50884820D01*
X127204971Y-50885179D01*
X127585515Y-50727942D01*
X127608526Y-50704971D01*
X128564821Y-50704971D01*
X128722058Y-51085515D01*
X129012954Y-51376919D01*
X129393223Y-51534820D01*
X129804971Y-51535179D01*
X130185515Y-51377942D01*
X130476919Y-51087046D01*
X130634820Y-50706777D01*
X130635179Y-50295029D01*
X130477942Y-49914485D01*
X130187046Y-49623081D01*
X129806777Y-49465180D01*
X129395029Y-49464821D01*
X129014485Y-49622058D01*
X128723081Y-49912954D01*
X128565180Y-50293223D01*
X128564821Y-50704971D01*
X127608526Y-50704971D01*
X127876919Y-50437046D01*
X128034820Y-50056777D01*
X128035179Y-49645029D01*
X127877942Y-49264485D01*
X127587046Y-48973081D01*
X127206777Y-48815180D01*
X126795029Y-48814821D01*
X126414485Y-48972058D01*
X126123081Y-49262954D01*
X125965180Y-49643223D01*
X125964821Y-50054971D01*
X117685170Y-50054971D01*
X117685179Y-50045029D01*
X117527942Y-49664485D01*
X117237046Y-49373081D01*
X116856777Y-49215180D01*
X116445029Y-49214821D01*
X116064485Y-49372058D01*
X115773081Y-49662954D01*
X115615180Y-50043223D01*
X115614821Y-50454971D01*
X105421493Y-50454971D01*
X105230485Y-50263629D01*
X104776734Y-50075215D01*
X104285421Y-50074786D01*
X103831343Y-50262408D01*
X103483629Y-50609515D01*
X103295215Y-51063266D01*
X103294786Y-51554579D01*
X103262000Y-51554579D01*
X103262000Y-49354971D01*
X113564821Y-49354971D01*
X113722058Y-49735515D01*
X114012954Y-50026919D01*
X114393223Y-50184820D01*
X114804971Y-50185179D01*
X115185515Y-50027942D01*
X115476919Y-49737046D01*
X115634820Y-49356777D01*
X115635179Y-48945029D01*
X115477942Y-48564485D01*
X115187046Y-48273081D01*
X114806777Y-48115180D01*
X114395029Y-48114821D01*
X114014485Y-48272058D01*
X113723081Y-48562954D01*
X113565180Y-48943223D01*
X113564821Y-49354971D01*
X103262000Y-49354971D01*
X103262000Y-48857424D01*
X103310115Y-48889573D01*
X103840132Y-48995000D01*
X105219868Y-48995000D01*
X105749885Y-48889573D01*
X106199211Y-48589343D01*
X106499441Y-48140017D01*
X106604868Y-47610000D01*
X106603868Y-47604971D01*
X119964821Y-47604971D01*
X120122058Y-47985515D01*
X120412954Y-48276919D01*
X120793223Y-48434820D01*
X121204971Y-48435179D01*
X121585515Y-48277942D01*
X121876919Y-47987046D01*
X122034820Y-47606777D01*
X122035039Y-47354971D01*
X122726221Y-47354971D01*
X122883458Y-47735515D01*
X123174354Y-48026919D01*
X123554623Y-48184820D01*
X123966371Y-48185179D01*
X124346915Y-48027942D01*
X124638319Y-47737046D01*
X124796220Y-47356777D01*
X124796439Y-47104971D01*
X127414821Y-47104971D01*
X127572058Y-47485515D01*
X127862954Y-47776919D01*
X128243223Y-47934820D01*
X128654971Y-47935179D01*
X129035515Y-47777942D01*
X129326919Y-47487046D01*
X129484820Y-47106777D01*
X129485043Y-46850000D01*
X138528071Y-46850000D01*
X138633498Y-47380017D01*
X138933728Y-47829343D01*
X139383054Y-48129573D01*
X139913071Y-48235000D01*
X140986929Y-48235000D01*
X141516946Y-48129573D01*
X141966272Y-47829343D01*
X142266502Y-47380017D01*
X142371929Y-46850000D01*
X142266502Y-46319983D01*
X141966272Y-45870657D01*
X141516946Y-45570427D01*
X140986929Y-45465000D01*
X139913071Y-45465000D01*
X139383054Y-45570427D01*
X138933728Y-45870657D01*
X138633498Y-46319983D01*
X138528071Y-46850000D01*
X129485043Y-46850000D01*
X129485179Y-46695029D01*
X129327942Y-46314485D01*
X129037046Y-46023081D01*
X128656777Y-45865180D01*
X128245029Y-45864821D01*
X127864485Y-46022058D01*
X127573081Y-46312954D01*
X127415180Y-46693223D01*
X127414821Y-47104971D01*
X124796439Y-47104971D01*
X124796579Y-46945029D01*
X124639342Y-46564485D01*
X124348446Y-46273081D01*
X123968177Y-46115180D01*
X123556429Y-46114821D01*
X123175885Y-46272058D01*
X122884481Y-46562954D01*
X122726580Y-46943223D01*
X122726221Y-47354971D01*
X122035039Y-47354971D01*
X122035179Y-47195029D01*
X121877942Y-46814485D01*
X121587046Y-46523081D01*
X121206777Y-46365180D01*
X120795029Y-46364821D01*
X120414485Y-46522058D01*
X120123081Y-46812954D01*
X119965180Y-47193223D01*
X119964821Y-47604971D01*
X106603868Y-47604971D01*
X106499441Y-47079983D01*
X106199211Y-46630657D01*
X105749885Y-46330427D01*
X105219868Y-46225000D01*
X103840132Y-46225000D01*
X103310115Y-46330427D01*
X103262000Y-46362576D01*
X103262000Y-45762000D01*
X115000000Y-45762000D01*
X115019942Y-45758033D01*
X115040064Y-45760946D01*
X115165090Y-45729162D01*
X115291605Y-45703996D01*
X115308509Y-45692701D01*
X115328216Y-45687691D01*
X116668560Y-45047981D01*
X127964821Y-45047981D01*
X128122058Y-45428525D01*
X128412954Y-45719929D01*
X128793223Y-45877830D01*
X129204971Y-45878189D01*
X129400010Y-45797601D01*
X129593223Y-45877830D01*
X130004971Y-45878189D01*
X130385515Y-45720952D01*
X130676919Y-45430056D01*
X130834820Y-45049787D01*
X130835179Y-44638039D01*
X130677942Y-44257495D01*
X130387046Y-43966091D01*
X130006777Y-43808190D01*
X129595029Y-43807831D01*
X129399990Y-43888419D01*
X129206777Y-43808190D01*
X128795029Y-43807831D01*
X128414485Y-43965068D01*
X128123081Y-44255964D01*
X127965180Y-44636233D01*
X127964821Y-45047981D01*
X116668560Y-45047981D01*
X128599179Y-39353822D01*
X140597901Y-39353822D01*
X140626656Y-39884140D01*
X140774278Y-40240531D01*
X140957604Y-40288615D01*
X140790051Y-40400571D01*
X140649703Y-40610615D01*
X140600420Y-40858380D01*
X140600420Y-42258380D01*
X140649703Y-42506145D01*
X140790051Y-42716189D01*
X141000095Y-42856537D01*
X141247860Y-42905820D01*
X142647860Y-42905820D01*
X142895625Y-42856537D01*
X143105669Y-42716189D01*
X143246017Y-42506145D01*
X143295300Y-42258380D01*
X143295300Y-40858380D01*
X143246017Y-40610615D01*
X143105669Y-40400571D01*
X142936684Y-40287658D01*
X143116362Y-40240531D01*
X143292739Y-39739578D01*
X143263984Y-39209260D01*
X143116362Y-38852869D01*
X142880595Y-38791031D01*
X142124925Y-39546700D01*
X142139068Y-39560842D01*
X141959462Y-39740448D01*
X141945320Y-39726305D01*
X141931178Y-39740448D01*
X141751573Y-39560843D01*
X141765715Y-39546700D01*
X141010045Y-38791031D01*
X140774278Y-38852869D01*
X140597901Y-39353822D01*
X128599179Y-39353822D01*
X130154677Y-38611425D01*
X141189651Y-38611425D01*
X141945320Y-39367095D01*
X142700989Y-38611425D01*
X142639151Y-38375658D01*
X142138198Y-38199281D01*
X141607880Y-38228036D01*
X141251489Y-38375658D01*
X141189651Y-38611425D01*
X130154677Y-38611425D01*
X132263438Y-37604971D01*
X144914821Y-37604971D01*
X145072058Y-37985515D01*
X145362954Y-38276919D01*
X145743223Y-38434820D01*
X146154971Y-38435179D01*
X146535515Y-38277942D01*
X146826919Y-37987046D01*
X146984820Y-37606777D01*
X146985179Y-37195029D01*
X146827942Y-36814485D01*
X146537046Y-36523081D01*
X146156777Y-36365180D01*
X145745029Y-36364821D01*
X145364485Y-36522058D01*
X145073081Y-36812954D01*
X144915180Y-37193223D01*
X144914821Y-37604971D01*
X132263438Y-37604971D01*
X137172521Y-35262000D01*
X137615033Y-35262000D01*
X137614821Y-35504971D01*
M02*
