M48
;DRILL file {KiCad no-vcs-found-undefined} date Thu Oct 27 09:39:48 2016
;FORMAT={-:-/ absolute / metric / decimal}
FMAT,2
METRIC,TZ
T1C0.400
T2C0.500
T3C0.600
T4C0.700
T5C0.900
T6C1.200
%
G90
G05
M71
T1
X111.2Y-56.35
X114.6Y-49.15
X119.46Y-54.265
X120.55Y-51.4
X122.324Y-56.4
X128.25Y-52.85
X129.8Y-44.843
X138.65Y-35.3
X141.05Y-36.2
T2
X109.338Y-50.07
X109.7Y-48.95
X110.1Y-55.35
X110.1Y-56.2
X110.2Y-49.708
X111.069Y-59.858
X112.126Y-49.708
X113.2Y-50.691
X113.4Y-59.858
X114.084Y-55.95
X114.111Y-53.45
X116.65Y-50.25
X116.75Y-53.4
X116.75Y-55.35
X118.75Y-57.15
X119.05Y-59.1
X120.2Y-61.55
X121.Y-47.4
X121.75Y-59.017
X123.761Y-47.15
X123.9Y-61.6
X125.4Y-53.2
X126.55Y-59.75
X127.Y-49.85
X127.1Y-48.5
X128.45Y-46.9
X129.Y-44.843
X129.15Y-39.65
X129.6Y-50.5
X129.75Y-57.65
X131.7Y-55.35
X131.9Y-45.75
X132.621Y-39.7
X133.1Y-54.
X136.95Y-42.65
X138.375Y-39.6
X141.75Y-50.65
X141.75Y-51.9
X141.75Y-53.2
X141.75Y-54.9
X141.75Y-56.65
X145.95Y-37.4
T4
X103.78Y-47.61
X103.78Y-59.61
X105.28Y-47.61
X105.28Y-59.61
T5
X141.945Y-39.547
X141.948Y-41.558
T6
X104.53Y-47.61
X104.53Y-59.61
T3
X141.Y-46.85G85X139.9Y-46.85
G05
X141.Y-59.55G85X139.9Y-59.55
G05
T0
M30
