G04 #@! TF.FileFunction,Copper,L4,Bot,Mixed*
%FSLAX46Y46*%
G04 Gerber Fmt 4.6, Leading zero omitted, Abs format (unit mm)*
G04 Created by KiCad (PCBNEW no-vcs-found-undefined) date Thu Oct 27 09:39:57 2016*
%MOMM*%
%LPD*%
G01*
G04 APERTURE LIST*
%ADD10C,0.600000*%
%ADD11C,1.200000*%
%ADD12C,0.800000*%
%ADD13O,2.800000X1.500000*%
%ADD14O,2.500000X1.500000*%
%ADD15R,1.400000X1.400000*%
%ADD16C,1.400000*%
%ADD17C,2.032000*%
%ADD18C,0.508000*%
%ADD19C,0.203200*%
%ADD20C,0.355600*%
%ADD21C,0.254000*%
G04 APERTURE END LIST*
D10*
D11*
X104530000Y-51310000D03*
X104530000Y-55910000D03*
D12*
X105280000Y-47610000D03*
X103780000Y-59610000D03*
X103780000Y-47610000D03*
D13*
X104530000Y-47610000D03*
D12*
X105280000Y-59610000D03*
D13*
X104530000Y-59610000D03*
D14*
X140450000Y-46850000D03*
X140450000Y-59550000D03*
D15*
X141947860Y-41558380D03*
D16*
X141945320Y-39546700D03*
D12*
X132620704Y-39700485D03*
X119050000Y-59100000D03*
X136950000Y-42650000D03*
X131900000Y-45750000D03*
X127100000Y-48500000D03*
X141750000Y-51900000D03*
X141750000Y-54900000D03*
X112126000Y-49708000D03*
X114084000Y-55950000D03*
X123900000Y-61600000D03*
X129750000Y-57650000D03*
X131700000Y-55350000D03*
X133100000Y-54000000D03*
X141750000Y-56650000D03*
X141750000Y-53200000D03*
X141750000Y-50650000D03*
X129150000Y-39650000D03*
X138375400Y-39600000D03*
X118750000Y-57150000D03*
X111069400Y-59858000D03*
X113400000Y-59858000D03*
X109700000Y-48950000D03*
X110200000Y-49708000D03*
X109338000Y-50070000D03*
X113200000Y-50691000D03*
X114111000Y-53450000D03*
X122324000Y-56400000D03*
X129000000Y-44843010D03*
X129800000Y-44843010D03*
X128450000Y-46900000D03*
X116650000Y-50250000D03*
X120200000Y-61550000D03*
X121750000Y-59017026D03*
X125400000Y-53200000D03*
X129600000Y-50500000D03*
X145950000Y-37400000D03*
X123761400Y-47150000D03*
X116750000Y-55350000D03*
X110100000Y-56200000D03*
X110100000Y-55350000D03*
X141050000Y-36200000D03*
X127000000Y-49850000D03*
X126550000Y-59750000D03*
X121000000Y-47400000D03*
X116750000Y-53400000D03*
X120550000Y-51400000D03*
X114600000Y-49150000D03*
X128250000Y-52850000D03*
X138650000Y-35300000D03*
X111200000Y-56350000D03*
X119459603Y-54264542D03*
D17*
X141947860Y-41558380D02*
X138142022Y-41558380D01*
X138142022Y-41558380D02*
X137640641Y-41056999D01*
X121100000Y-44000000D02*
X118600000Y-46500000D01*
X114043001Y-47406999D02*
X107893001Y-47406999D01*
X137640641Y-41056999D02*
X133547832Y-41056999D01*
X133547832Y-41056999D02*
X133004831Y-41600000D01*
X133004831Y-41600000D02*
X126600000Y-41600000D01*
X126600000Y-41600000D02*
X124200000Y-44000000D01*
X124200000Y-44000000D02*
X121100000Y-44000000D01*
X118600000Y-46500000D02*
X114950000Y-46500000D01*
X114950000Y-46500000D02*
X114043001Y-47406999D01*
X107450000Y-47850000D02*
X107450000Y-48700000D01*
X107893001Y-47406999D02*
X107450000Y-47850000D01*
X107450000Y-48700000D02*
X107450000Y-53800000D01*
X107450000Y-53800000D02*
X109400000Y-55750000D01*
D18*
X107450000Y-48700000D02*
X107450000Y-52700000D01*
X107450000Y-52700000D02*
X110100000Y-55350000D01*
X143800000Y-38950000D02*
X143800000Y-40914240D01*
X143155860Y-41558380D02*
X141947860Y-41558380D01*
X143800000Y-40914240D02*
X143155860Y-41558380D01*
X141050000Y-36200000D02*
X143800000Y-38950000D01*
D19*
X116850000Y-51400000D02*
X119984315Y-51400000D01*
X114600000Y-49150000D02*
X116850000Y-51400000D01*
X119984315Y-51400000D02*
X120550000Y-51400000D01*
D20*
X144358809Y-41891191D02*
X141995199Y-44254801D01*
X144358809Y-38465703D02*
X144358809Y-41891191D01*
X141995199Y-44254801D02*
X136845199Y-44254801D01*
X141193106Y-35300000D02*
X144358809Y-38465703D01*
X128649999Y-52450001D02*
X128250000Y-52850000D01*
X138650000Y-35300000D02*
X141193106Y-35300000D01*
X136845199Y-44254801D02*
X128649999Y-52450001D01*
D21*
X112485458Y-54264542D02*
X111200000Y-55550000D01*
X111200000Y-55550000D02*
X111200000Y-56350000D01*
X119459603Y-54264542D02*
X112485458Y-54264542D01*
G36*
X148738000Y-61738000D02*
X121234836Y-61738000D01*
X121235179Y-61345029D01*
X121077942Y-60964485D01*
X120787046Y-60673081D01*
X120406777Y-60515180D01*
X119995029Y-60514821D01*
X119614485Y-60672058D01*
X119323081Y-60962954D01*
X119165180Y-61343223D01*
X119164836Y-61738000D01*
X103262000Y-61738000D01*
X103262000Y-60857424D01*
X103310115Y-60889573D01*
X103840132Y-60995000D01*
X105219868Y-60995000D01*
X105749885Y-60889573D01*
X106199211Y-60589343D01*
X106499441Y-60140017D01*
X106604868Y-59610000D01*
X106527690Y-59221997D01*
X120714821Y-59221997D01*
X120872058Y-59602541D01*
X121162954Y-59893945D01*
X121543223Y-60051846D01*
X121954971Y-60052205D01*
X122190296Y-59954971D01*
X125514821Y-59954971D01*
X125672058Y-60335515D01*
X125962954Y-60626919D01*
X126343223Y-60784820D01*
X126754971Y-60785179D01*
X127135515Y-60627942D01*
X127426919Y-60337046D01*
X127584820Y-59956777D01*
X127585174Y-59550000D01*
X138528071Y-59550000D01*
X138633498Y-60080017D01*
X138933728Y-60529343D01*
X139383054Y-60829573D01*
X139913071Y-60935000D01*
X140986929Y-60935000D01*
X141516946Y-60829573D01*
X141966272Y-60529343D01*
X142266502Y-60080017D01*
X142371929Y-59550000D01*
X142266502Y-59019983D01*
X141966272Y-58570657D01*
X141516946Y-58270427D01*
X140986929Y-58165000D01*
X139913071Y-58165000D01*
X139383054Y-58270427D01*
X138933728Y-58570657D01*
X138633498Y-59019983D01*
X138528071Y-59550000D01*
X127585174Y-59550000D01*
X127585179Y-59545029D01*
X127427942Y-59164485D01*
X127137046Y-58873081D01*
X126756777Y-58715180D01*
X126345029Y-58714821D01*
X125964485Y-58872058D01*
X125673081Y-59162954D01*
X125515180Y-59543223D01*
X125514821Y-59954971D01*
X122190296Y-59954971D01*
X122335515Y-59894968D01*
X122626919Y-59604072D01*
X122784820Y-59223803D01*
X122785179Y-58812055D01*
X122627942Y-58431511D01*
X122337046Y-58140107D01*
X121956777Y-57982206D01*
X121545029Y-57981847D01*
X121164485Y-58139084D01*
X120873081Y-58429980D01*
X120715180Y-58810249D01*
X120714821Y-59221997D01*
X106527690Y-59221997D01*
X106499441Y-59079983D01*
X106199211Y-58630657D01*
X105749885Y-58330427D01*
X105219868Y-58225000D01*
X103840132Y-58225000D01*
X103310115Y-58330427D01*
X103262000Y-58362576D01*
X103262000Y-56154579D01*
X103294786Y-56154579D01*
X103482408Y-56608657D01*
X103829515Y-56956371D01*
X104283266Y-57144785D01*
X104774579Y-57145214D01*
X105228657Y-56957592D01*
X105576371Y-56610485D01*
X105764785Y-56156734D01*
X105765214Y-55665421D01*
X105577592Y-55211343D01*
X105230485Y-54863629D01*
X104776734Y-54675215D01*
X104285421Y-54674786D01*
X103831343Y-54862408D01*
X103483629Y-55209515D01*
X103295215Y-55663266D01*
X103294786Y-56154579D01*
X103262000Y-56154579D01*
X103262000Y-51554579D01*
X103294786Y-51554579D01*
X103482408Y-52008657D01*
X103829515Y-52356371D01*
X104283266Y-52544785D01*
X104774579Y-52545214D01*
X105228657Y-52357592D01*
X105576371Y-52010485D01*
X105764785Y-51556734D01*
X105765214Y-51065421D01*
X105577592Y-50611343D01*
X105230485Y-50263629D01*
X104776734Y-50075215D01*
X104285421Y-50074786D01*
X103831343Y-50262408D01*
X103483629Y-50609515D01*
X103295215Y-51063266D01*
X103294786Y-51554579D01*
X103262000Y-51554579D01*
X103262000Y-48857424D01*
X103310115Y-48889573D01*
X103840132Y-48995000D01*
X105219868Y-48995000D01*
X105749885Y-48889573D01*
X105799000Y-48856755D01*
X105799000Y-53800000D01*
X105924675Y-54431811D01*
X106282567Y-54967433D01*
X108232566Y-56917433D01*
X108768189Y-57275324D01*
X109400000Y-57400999D01*
X110031810Y-57275324D01*
X110092169Y-57234993D01*
X110304971Y-57235179D01*
X110528854Y-57142673D01*
X110612954Y-57226919D01*
X110993223Y-57384820D01*
X111404971Y-57385179D01*
X111785515Y-57227942D01*
X112076919Y-56937046D01*
X112234820Y-56556777D01*
X112235179Y-56145029D01*
X112077942Y-55764485D01*
X112070550Y-55757080D01*
X112801088Y-55026542D01*
X115763630Y-55026542D01*
X115715180Y-55143223D01*
X115714821Y-55554971D01*
X115872058Y-55935515D01*
X116162954Y-56226919D01*
X116543223Y-56384820D01*
X116954971Y-56385179D01*
X117335515Y-56227942D01*
X117626919Y-55937046D01*
X117784820Y-55556777D01*
X117785179Y-55145029D01*
X117736221Y-55026542D01*
X118757838Y-55026542D01*
X118872557Y-55141461D01*
X119252826Y-55299362D01*
X119664574Y-55299721D01*
X120045118Y-55142484D01*
X120336522Y-54851588D01*
X120494423Y-54471319D01*
X120494782Y-54059571D01*
X120337545Y-53679027D01*
X120063967Y-53404971D01*
X124364821Y-53404971D01*
X124522058Y-53785515D01*
X124812954Y-54076919D01*
X125193223Y-54234820D01*
X125604971Y-54235179D01*
X125985515Y-54077942D01*
X126276919Y-53787046D01*
X126434820Y-53406777D01*
X126435179Y-52995029D01*
X126277942Y-52614485D01*
X125987046Y-52323081D01*
X125606777Y-52165180D01*
X125195029Y-52164821D01*
X124814485Y-52322058D01*
X124523081Y-52612954D01*
X124365180Y-52993223D01*
X124364821Y-53404971D01*
X120063967Y-53404971D01*
X120046649Y-53387623D01*
X119666380Y-53229722D01*
X119254632Y-53229363D01*
X118874088Y-53386600D01*
X118757944Y-53502542D01*
X117784911Y-53502542D01*
X117785179Y-53195029D01*
X117627942Y-52814485D01*
X117337046Y-52523081D01*
X116956777Y-52365180D01*
X116545029Y-52364821D01*
X116164485Y-52522058D01*
X115873081Y-52812954D01*
X115715180Y-53193223D01*
X115714910Y-53502542D01*
X112485458Y-53502542D01*
X112193853Y-53560546D01*
X111946643Y-53725727D01*
X110942944Y-54729426D01*
X110687046Y-54473081D01*
X110333521Y-54326285D01*
X109101000Y-53093764D01*
X109101000Y-49057999D01*
X113565080Y-49057999D01*
X113564821Y-49354971D01*
X113722058Y-49735515D01*
X114012954Y-50026919D01*
X114393223Y-50184820D01*
X114593284Y-50184994D01*
X116329145Y-51920855D01*
X116568116Y-52080531D01*
X116850000Y-52136601D01*
X116850005Y-52136600D01*
X119822880Y-52136600D01*
X119962954Y-52276919D01*
X120343223Y-52434820D01*
X120754971Y-52435179D01*
X121135515Y-52277942D01*
X121426919Y-51987046D01*
X121584820Y-51606777D01*
X121585179Y-51195029D01*
X121427942Y-50814485D01*
X121137046Y-50523081D01*
X120756777Y-50365180D01*
X120345029Y-50364821D01*
X119964485Y-50522058D01*
X119822896Y-50663400D01*
X117599023Y-50663400D01*
X117684820Y-50456777D01*
X117685170Y-50054971D01*
X125964821Y-50054971D01*
X126122058Y-50435515D01*
X126412954Y-50726919D01*
X126793223Y-50884820D01*
X127204971Y-50885179D01*
X127585515Y-50727942D01*
X127876919Y-50437046D01*
X128034820Y-50056777D01*
X128035179Y-49645029D01*
X127877942Y-49264485D01*
X127587046Y-48973081D01*
X127206777Y-48815180D01*
X126795029Y-48814821D01*
X126414485Y-48972058D01*
X126123081Y-49262954D01*
X125965180Y-49643223D01*
X125964821Y-50054971D01*
X117685170Y-50054971D01*
X117685179Y-50045029D01*
X117527942Y-49664485D01*
X117237046Y-49373081D01*
X116856777Y-49215180D01*
X116445029Y-49214821D01*
X116064485Y-49372058D01*
X115964039Y-49472329D01*
X115635006Y-49143296D01*
X115635179Y-48945029D01*
X115477942Y-48564485D01*
X115349274Y-48435592D01*
X115633866Y-48151000D01*
X118600000Y-48151000D01*
X119231811Y-48025325D01*
X119767433Y-47667433D01*
X119964939Y-47469927D01*
X119964821Y-47604971D01*
X120122058Y-47985515D01*
X120412954Y-48276919D01*
X120793223Y-48434820D01*
X121204971Y-48435179D01*
X121585515Y-48277942D01*
X121876919Y-47987046D01*
X122034820Y-47606777D01*
X122035039Y-47354971D01*
X122726221Y-47354971D01*
X122883458Y-47735515D01*
X123174354Y-48026919D01*
X123554623Y-48184820D01*
X123966371Y-48185179D01*
X124346915Y-48027942D01*
X124638319Y-47737046D01*
X124796220Y-47356777D01*
X124796439Y-47104971D01*
X127414821Y-47104971D01*
X127572058Y-47485515D01*
X127862954Y-47776919D01*
X128243223Y-47934820D01*
X128654971Y-47935179D01*
X129035515Y-47777942D01*
X129326919Y-47487046D01*
X129484820Y-47106777D01*
X129485179Y-46695029D01*
X129327942Y-46314485D01*
X129037046Y-46023081D01*
X128656777Y-45865180D01*
X128245029Y-45864821D01*
X127864485Y-46022058D01*
X127573081Y-46312954D01*
X127415180Y-46693223D01*
X127414821Y-47104971D01*
X124796439Y-47104971D01*
X124796579Y-46945029D01*
X124639342Y-46564485D01*
X124348446Y-46273081D01*
X123968177Y-46115180D01*
X123556429Y-46114821D01*
X123175885Y-46272058D01*
X122884481Y-46562954D01*
X122726580Y-46943223D01*
X122726221Y-47354971D01*
X122035039Y-47354971D01*
X122035179Y-47195029D01*
X121877942Y-46814485D01*
X121587046Y-46523081D01*
X121206777Y-46365180D01*
X121069805Y-46365061D01*
X121783866Y-45651000D01*
X124200000Y-45651000D01*
X124831811Y-45525325D01*
X125367433Y-45167433D01*
X125486885Y-45047981D01*
X127964821Y-45047981D01*
X128122058Y-45428525D01*
X128412954Y-45719929D01*
X128793223Y-45877830D01*
X129204971Y-45878189D01*
X129400010Y-45797601D01*
X129593223Y-45877830D01*
X130004971Y-45878189D01*
X130385515Y-45720952D01*
X130676919Y-45430056D01*
X130834820Y-45049787D01*
X130835179Y-44638039D01*
X130677942Y-44257495D01*
X130387046Y-43966091D01*
X130006777Y-43808190D01*
X129595029Y-43807831D01*
X129399990Y-43888419D01*
X129206777Y-43808190D01*
X128795029Y-43807831D01*
X128414485Y-43965068D01*
X128123081Y-44255964D01*
X127965180Y-44636233D01*
X127964821Y-45047981D01*
X125486885Y-45047981D01*
X127283867Y-43251000D01*
X133004831Y-43251000D01*
X133636642Y-43125325D01*
X134172264Y-42767433D01*
X134231698Y-42707999D01*
X136956775Y-42707999D01*
X136974589Y-42725813D01*
X137510212Y-43083705D01*
X138142022Y-43209380D01*
X141891148Y-43209380D01*
X141658527Y-43442001D01*
X136845199Y-43442001D01*
X136534154Y-43503872D01*
X136270463Y-43680065D01*
X130257185Y-49693343D01*
X130187046Y-49623081D01*
X129806777Y-49465180D01*
X129395029Y-49464821D01*
X129014485Y-49622058D01*
X128723081Y-49912954D01*
X128565180Y-50293223D01*
X128564821Y-50704971D01*
X128722058Y-51085515D01*
X128793473Y-51157055D01*
X128135628Y-51814900D01*
X128045029Y-51814821D01*
X127664485Y-51972058D01*
X127373081Y-52262954D01*
X127215180Y-52643223D01*
X127214821Y-53054971D01*
X127372058Y-53435515D01*
X127662954Y-53726919D01*
X128043223Y-53884820D01*
X128454971Y-53885179D01*
X128835515Y-53727942D01*
X129126919Y-53437046D01*
X129284820Y-53056777D01*
X129284900Y-52964572D01*
X135399472Y-46850000D01*
X138528071Y-46850000D01*
X138633498Y-47380017D01*
X138933728Y-47829343D01*
X139383054Y-48129573D01*
X139913071Y-48235000D01*
X140986929Y-48235000D01*
X141516946Y-48129573D01*
X141966272Y-47829343D01*
X142266502Y-47380017D01*
X142371929Y-46850000D01*
X142266502Y-46319983D01*
X141966272Y-45870657D01*
X141516946Y-45570427D01*
X140986929Y-45465000D01*
X139913071Y-45465000D01*
X139383054Y-45570427D01*
X138933728Y-45870657D01*
X138633498Y-46319983D01*
X138528071Y-46850000D01*
X135399472Y-46850000D01*
X137181871Y-45067601D01*
X141995199Y-45067601D01*
X142306244Y-45005730D01*
X142569935Y-44829537D01*
X144933545Y-42465928D01*
X145109738Y-42202236D01*
X145112769Y-42186998D01*
X145171609Y-41891191D01*
X145171609Y-38465703D01*
X145109738Y-38154658D01*
X144933545Y-37890967D01*
X144647549Y-37604971D01*
X144914821Y-37604971D01*
X145072058Y-37985515D01*
X145362954Y-38276919D01*
X145743223Y-38434820D01*
X146154971Y-38435179D01*
X146535515Y-38277942D01*
X146826919Y-37987046D01*
X146984820Y-37606777D01*
X146985179Y-37195029D01*
X146827942Y-36814485D01*
X146537046Y-36523081D01*
X146156777Y-36365180D01*
X145745029Y-36364821D01*
X145364485Y-36522058D01*
X145073081Y-36812954D01*
X144915180Y-37193223D01*
X144914821Y-37604971D01*
X144647549Y-37604971D01*
X142304578Y-35262000D01*
X148738000Y-35262000D01*
X148738000Y-61738000D01*
X148738000Y-61738000D01*
G37*
X148738000Y-61738000D02*
X121234836Y-61738000D01*
X121235179Y-61345029D01*
X121077942Y-60964485D01*
X120787046Y-60673081D01*
X120406777Y-60515180D01*
X119995029Y-60514821D01*
X119614485Y-60672058D01*
X119323081Y-60962954D01*
X119165180Y-61343223D01*
X119164836Y-61738000D01*
X103262000Y-61738000D01*
X103262000Y-60857424D01*
X103310115Y-60889573D01*
X103840132Y-60995000D01*
X105219868Y-60995000D01*
X105749885Y-60889573D01*
X106199211Y-60589343D01*
X106499441Y-60140017D01*
X106604868Y-59610000D01*
X106527690Y-59221997D01*
X120714821Y-59221997D01*
X120872058Y-59602541D01*
X121162954Y-59893945D01*
X121543223Y-60051846D01*
X121954971Y-60052205D01*
X122190296Y-59954971D01*
X125514821Y-59954971D01*
X125672058Y-60335515D01*
X125962954Y-60626919D01*
X126343223Y-60784820D01*
X126754971Y-60785179D01*
X127135515Y-60627942D01*
X127426919Y-60337046D01*
X127584820Y-59956777D01*
X127585174Y-59550000D01*
X138528071Y-59550000D01*
X138633498Y-60080017D01*
X138933728Y-60529343D01*
X139383054Y-60829573D01*
X139913071Y-60935000D01*
X140986929Y-60935000D01*
X141516946Y-60829573D01*
X141966272Y-60529343D01*
X142266502Y-60080017D01*
X142371929Y-59550000D01*
X142266502Y-59019983D01*
X141966272Y-58570657D01*
X141516946Y-58270427D01*
X140986929Y-58165000D01*
X139913071Y-58165000D01*
X139383054Y-58270427D01*
X138933728Y-58570657D01*
X138633498Y-59019983D01*
X138528071Y-59550000D01*
X127585174Y-59550000D01*
X127585179Y-59545029D01*
X127427942Y-59164485D01*
X127137046Y-58873081D01*
X126756777Y-58715180D01*
X126345029Y-58714821D01*
X125964485Y-58872058D01*
X125673081Y-59162954D01*
X125515180Y-59543223D01*
X125514821Y-59954971D01*
X122190296Y-59954971D01*
X122335515Y-59894968D01*
X122626919Y-59604072D01*
X122784820Y-59223803D01*
X122785179Y-58812055D01*
X122627942Y-58431511D01*
X122337046Y-58140107D01*
X121956777Y-57982206D01*
X121545029Y-57981847D01*
X121164485Y-58139084D01*
X120873081Y-58429980D01*
X120715180Y-58810249D01*
X120714821Y-59221997D01*
X106527690Y-59221997D01*
X106499441Y-59079983D01*
X106199211Y-58630657D01*
X105749885Y-58330427D01*
X105219868Y-58225000D01*
X103840132Y-58225000D01*
X103310115Y-58330427D01*
X103262000Y-58362576D01*
X103262000Y-56154579D01*
X103294786Y-56154579D01*
X103482408Y-56608657D01*
X103829515Y-56956371D01*
X104283266Y-57144785D01*
X104774579Y-57145214D01*
X105228657Y-56957592D01*
X105576371Y-56610485D01*
X105764785Y-56156734D01*
X105765214Y-55665421D01*
X105577592Y-55211343D01*
X105230485Y-54863629D01*
X104776734Y-54675215D01*
X104285421Y-54674786D01*
X103831343Y-54862408D01*
X103483629Y-55209515D01*
X103295215Y-55663266D01*
X103294786Y-56154579D01*
X103262000Y-56154579D01*
X103262000Y-51554579D01*
X103294786Y-51554579D01*
X103482408Y-52008657D01*
X103829515Y-52356371D01*
X104283266Y-52544785D01*
X104774579Y-52545214D01*
X105228657Y-52357592D01*
X105576371Y-52010485D01*
X105764785Y-51556734D01*
X105765214Y-51065421D01*
X105577592Y-50611343D01*
X105230485Y-50263629D01*
X104776734Y-50075215D01*
X104285421Y-50074786D01*
X103831343Y-50262408D01*
X103483629Y-50609515D01*
X103295215Y-51063266D01*
X103294786Y-51554579D01*
X103262000Y-51554579D01*
X103262000Y-48857424D01*
X103310115Y-48889573D01*
X103840132Y-48995000D01*
X105219868Y-48995000D01*
X105749885Y-48889573D01*
X105799000Y-48856755D01*
X105799000Y-53800000D01*
X105924675Y-54431811D01*
X106282567Y-54967433D01*
X108232566Y-56917433D01*
X108768189Y-57275324D01*
X109400000Y-57400999D01*
X110031810Y-57275324D01*
X110092169Y-57234993D01*
X110304971Y-57235179D01*
X110528854Y-57142673D01*
X110612954Y-57226919D01*
X110993223Y-57384820D01*
X111404971Y-57385179D01*
X111785515Y-57227942D01*
X112076919Y-56937046D01*
X112234820Y-56556777D01*
X112235179Y-56145029D01*
X112077942Y-55764485D01*
X112070550Y-55757080D01*
X112801088Y-55026542D01*
X115763630Y-55026542D01*
X115715180Y-55143223D01*
X115714821Y-55554971D01*
X115872058Y-55935515D01*
X116162954Y-56226919D01*
X116543223Y-56384820D01*
X116954971Y-56385179D01*
X117335515Y-56227942D01*
X117626919Y-55937046D01*
X117784820Y-55556777D01*
X117785179Y-55145029D01*
X117736221Y-55026542D01*
X118757838Y-55026542D01*
X118872557Y-55141461D01*
X119252826Y-55299362D01*
X119664574Y-55299721D01*
X120045118Y-55142484D01*
X120336522Y-54851588D01*
X120494423Y-54471319D01*
X120494782Y-54059571D01*
X120337545Y-53679027D01*
X120063967Y-53404971D01*
X124364821Y-53404971D01*
X124522058Y-53785515D01*
X124812954Y-54076919D01*
X125193223Y-54234820D01*
X125604971Y-54235179D01*
X125985515Y-54077942D01*
X126276919Y-53787046D01*
X126434820Y-53406777D01*
X126435179Y-52995029D01*
X126277942Y-52614485D01*
X125987046Y-52323081D01*
X125606777Y-52165180D01*
X125195029Y-52164821D01*
X124814485Y-52322058D01*
X124523081Y-52612954D01*
X124365180Y-52993223D01*
X124364821Y-53404971D01*
X120063967Y-53404971D01*
X120046649Y-53387623D01*
X119666380Y-53229722D01*
X119254632Y-53229363D01*
X118874088Y-53386600D01*
X118757944Y-53502542D01*
X117784911Y-53502542D01*
X117785179Y-53195029D01*
X117627942Y-52814485D01*
X117337046Y-52523081D01*
X116956777Y-52365180D01*
X116545029Y-52364821D01*
X116164485Y-52522058D01*
X115873081Y-52812954D01*
X115715180Y-53193223D01*
X115714910Y-53502542D01*
X112485458Y-53502542D01*
X112193853Y-53560546D01*
X111946643Y-53725727D01*
X110942944Y-54729426D01*
X110687046Y-54473081D01*
X110333521Y-54326285D01*
X109101000Y-53093764D01*
X109101000Y-49057999D01*
X113565080Y-49057999D01*
X113564821Y-49354971D01*
X113722058Y-49735515D01*
X114012954Y-50026919D01*
X114393223Y-50184820D01*
X114593284Y-50184994D01*
X116329145Y-51920855D01*
X116568116Y-52080531D01*
X116850000Y-52136601D01*
X116850005Y-52136600D01*
X119822880Y-52136600D01*
X119962954Y-52276919D01*
X120343223Y-52434820D01*
X120754971Y-52435179D01*
X121135515Y-52277942D01*
X121426919Y-51987046D01*
X121584820Y-51606777D01*
X121585179Y-51195029D01*
X121427942Y-50814485D01*
X121137046Y-50523081D01*
X120756777Y-50365180D01*
X120345029Y-50364821D01*
X119964485Y-50522058D01*
X119822896Y-50663400D01*
X117599023Y-50663400D01*
X117684820Y-50456777D01*
X117685170Y-50054971D01*
X125964821Y-50054971D01*
X126122058Y-50435515D01*
X126412954Y-50726919D01*
X126793223Y-50884820D01*
X127204971Y-50885179D01*
X127585515Y-50727942D01*
X127876919Y-50437046D01*
X128034820Y-50056777D01*
X128035179Y-49645029D01*
X127877942Y-49264485D01*
X127587046Y-48973081D01*
X127206777Y-48815180D01*
X126795029Y-48814821D01*
X126414485Y-48972058D01*
X126123081Y-49262954D01*
X125965180Y-49643223D01*
X125964821Y-50054971D01*
X117685170Y-50054971D01*
X117685179Y-50045029D01*
X117527942Y-49664485D01*
X117237046Y-49373081D01*
X116856777Y-49215180D01*
X116445029Y-49214821D01*
X116064485Y-49372058D01*
X115964039Y-49472329D01*
X115635006Y-49143296D01*
X115635179Y-48945029D01*
X115477942Y-48564485D01*
X115349274Y-48435592D01*
X115633866Y-48151000D01*
X118600000Y-48151000D01*
X119231811Y-48025325D01*
X119767433Y-47667433D01*
X119964939Y-47469927D01*
X119964821Y-47604971D01*
X120122058Y-47985515D01*
X120412954Y-48276919D01*
X120793223Y-48434820D01*
X121204971Y-48435179D01*
X121585515Y-48277942D01*
X121876919Y-47987046D01*
X122034820Y-47606777D01*
X122035039Y-47354971D01*
X122726221Y-47354971D01*
X122883458Y-47735515D01*
X123174354Y-48026919D01*
X123554623Y-48184820D01*
X123966371Y-48185179D01*
X124346915Y-48027942D01*
X124638319Y-47737046D01*
X124796220Y-47356777D01*
X124796439Y-47104971D01*
X127414821Y-47104971D01*
X127572058Y-47485515D01*
X127862954Y-47776919D01*
X128243223Y-47934820D01*
X128654971Y-47935179D01*
X129035515Y-47777942D01*
X129326919Y-47487046D01*
X129484820Y-47106777D01*
X129485179Y-46695029D01*
X129327942Y-46314485D01*
X129037046Y-46023081D01*
X128656777Y-45865180D01*
X128245029Y-45864821D01*
X127864485Y-46022058D01*
X127573081Y-46312954D01*
X127415180Y-46693223D01*
X127414821Y-47104971D01*
X124796439Y-47104971D01*
X124796579Y-46945029D01*
X124639342Y-46564485D01*
X124348446Y-46273081D01*
X123968177Y-46115180D01*
X123556429Y-46114821D01*
X123175885Y-46272058D01*
X122884481Y-46562954D01*
X122726580Y-46943223D01*
X122726221Y-47354971D01*
X122035039Y-47354971D01*
X122035179Y-47195029D01*
X121877942Y-46814485D01*
X121587046Y-46523081D01*
X121206777Y-46365180D01*
X121069805Y-46365061D01*
X121783866Y-45651000D01*
X124200000Y-45651000D01*
X124831811Y-45525325D01*
X125367433Y-45167433D01*
X125486885Y-45047981D01*
X127964821Y-45047981D01*
X128122058Y-45428525D01*
X128412954Y-45719929D01*
X128793223Y-45877830D01*
X129204971Y-45878189D01*
X129400010Y-45797601D01*
X129593223Y-45877830D01*
X130004971Y-45878189D01*
X130385515Y-45720952D01*
X130676919Y-45430056D01*
X130834820Y-45049787D01*
X130835179Y-44638039D01*
X130677942Y-44257495D01*
X130387046Y-43966091D01*
X130006777Y-43808190D01*
X129595029Y-43807831D01*
X129399990Y-43888419D01*
X129206777Y-43808190D01*
X128795029Y-43807831D01*
X128414485Y-43965068D01*
X128123081Y-44255964D01*
X127965180Y-44636233D01*
X127964821Y-45047981D01*
X125486885Y-45047981D01*
X127283867Y-43251000D01*
X133004831Y-43251000D01*
X133636642Y-43125325D01*
X134172264Y-42767433D01*
X134231698Y-42707999D01*
X136956775Y-42707999D01*
X136974589Y-42725813D01*
X137510212Y-43083705D01*
X138142022Y-43209380D01*
X141891148Y-43209380D01*
X141658527Y-43442001D01*
X136845199Y-43442001D01*
X136534154Y-43503872D01*
X136270463Y-43680065D01*
X130257185Y-49693343D01*
X130187046Y-49623081D01*
X129806777Y-49465180D01*
X129395029Y-49464821D01*
X129014485Y-49622058D01*
X128723081Y-49912954D01*
X128565180Y-50293223D01*
X128564821Y-50704971D01*
X128722058Y-51085515D01*
X128793473Y-51157055D01*
X128135628Y-51814900D01*
X128045029Y-51814821D01*
X127664485Y-51972058D01*
X127373081Y-52262954D01*
X127215180Y-52643223D01*
X127214821Y-53054971D01*
X127372058Y-53435515D01*
X127662954Y-53726919D01*
X128043223Y-53884820D01*
X128454971Y-53885179D01*
X128835515Y-53727942D01*
X129126919Y-53437046D01*
X129284820Y-53056777D01*
X129284900Y-52964572D01*
X135399472Y-46850000D01*
X138528071Y-46850000D01*
X138633498Y-47380017D01*
X138933728Y-47829343D01*
X139383054Y-48129573D01*
X139913071Y-48235000D01*
X140986929Y-48235000D01*
X141516946Y-48129573D01*
X141966272Y-47829343D01*
X142266502Y-47380017D01*
X142371929Y-46850000D01*
X142266502Y-46319983D01*
X141966272Y-45870657D01*
X141516946Y-45570427D01*
X140986929Y-45465000D01*
X139913071Y-45465000D01*
X139383054Y-45570427D01*
X138933728Y-45870657D01*
X138633498Y-46319983D01*
X138528071Y-46850000D01*
X135399472Y-46850000D01*
X137181871Y-45067601D01*
X141995199Y-45067601D01*
X142306244Y-45005730D01*
X142569935Y-44829537D01*
X144933545Y-42465928D01*
X145109738Y-42202236D01*
X145112769Y-42186998D01*
X145171609Y-41891191D01*
X145171609Y-38465703D01*
X145109738Y-38154658D01*
X144933545Y-37890967D01*
X144647549Y-37604971D01*
X144914821Y-37604971D01*
X145072058Y-37985515D01*
X145362954Y-38276919D01*
X145743223Y-38434820D01*
X146154971Y-38435179D01*
X146535515Y-38277942D01*
X146826919Y-37987046D01*
X146984820Y-37606777D01*
X146985179Y-37195029D01*
X146827942Y-36814485D01*
X146537046Y-36523081D01*
X146156777Y-36365180D01*
X145745029Y-36364821D01*
X145364485Y-36522058D01*
X145073081Y-36812954D01*
X144915180Y-37193223D01*
X144914821Y-37604971D01*
X144647549Y-37604971D01*
X142304578Y-35262000D01*
X148738000Y-35262000D01*
X148738000Y-61738000D01*
G36*
X137614821Y-35504971D02*
X137772058Y-35885515D01*
X138062954Y-36176919D01*
X138443223Y-36334820D01*
X138854971Y-36335179D01*
X139235515Y-36177942D01*
X139300771Y-36112800D01*
X140015076Y-36112800D01*
X140014821Y-36404971D01*
X140172058Y-36785515D01*
X140462954Y-37076919D01*
X140816479Y-37223715D01*
X141809849Y-38217085D01*
X141607880Y-38228036D01*
X141251489Y-38375658D01*
X141189651Y-38611425D01*
X141945320Y-39367095D01*
X141959462Y-39352952D01*
X142139068Y-39532558D01*
X142124925Y-39546700D01*
X142139068Y-39560843D01*
X141959462Y-39740448D01*
X141945320Y-39726305D01*
X141931178Y-39740448D01*
X141751573Y-39560843D01*
X141765715Y-39546700D01*
X141010045Y-38791031D01*
X140774278Y-38852869D01*
X140597901Y-39353822D01*
X140626656Y-39884140D01*
X140636282Y-39907380D01*
X138825888Y-39907380D01*
X138808074Y-39889566D01*
X138272452Y-39531674D01*
X137640641Y-39405999D01*
X133547832Y-39405999D01*
X133020845Y-39510823D01*
X132916021Y-39531674D01*
X132380398Y-39889566D01*
X132320964Y-39949000D01*
X127352140Y-39949000D01*
X137172521Y-35262000D01*
X137615033Y-35262000D01*
X137614821Y-35504971D01*
X137614821Y-35504971D01*
G37*
X137614821Y-35504971D02*
X137772058Y-35885515D01*
X138062954Y-36176919D01*
X138443223Y-36334820D01*
X138854971Y-36335179D01*
X139235515Y-36177942D01*
X139300771Y-36112800D01*
X140015076Y-36112800D01*
X140014821Y-36404971D01*
X140172058Y-36785515D01*
X140462954Y-37076919D01*
X140816479Y-37223715D01*
X141809849Y-38217085D01*
X141607880Y-38228036D01*
X141251489Y-38375658D01*
X141189651Y-38611425D01*
X141945320Y-39367095D01*
X141959462Y-39352952D01*
X142139068Y-39532558D01*
X142124925Y-39546700D01*
X142139068Y-39560843D01*
X141959462Y-39740448D01*
X141945320Y-39726305D01*
X141931178Y-39740448D01*
X141751573Y-39560843D01*
X141765715Y-39546700D01*
X141010045Y-38791031D01*
X140774278Y-38852869D01*
X140597901Y-39353822D01*
X140626656Y-39884140D01*
X140636282Y-39907380D01*
X138825888Y-39907380D01*
X138808074Y-39889566D01*
X138272452Y-39531674D01*
X137640641Y-39405999D01*
X133547832Y-39405999D01*
X133020845Y-39510823D01*
X132916021Y-39531674D01*
X132380398Y-39889566D01*
X132320964Y-39949000D01*
X127352140Y-39949000D01*
X137172521Y-35262000D01*
X137615033Y-35262000D01*
X137614821Y-35504971D01*
M02*
